# xmcd
#
# Track frame offsets:
#	150
#	2813
#	20170
#	40268
#	57250
#	78233
#	97678
#	118963
#	141353
#	168908
#	189283
#
# Disc length: 2782 seconds
#
# Revision: 1
# Processed by: cddbd v1.5.2PL0 Copyright (c) Steve Scherf et al.
# Submitted via: EZCDAudioConverter 1.0.8.1
#
DISCID=880adc0b
DTITLE=Amel Larrieux - Infinite Possibilities
DYEAR=1999
DGENRE=Soul
TTITLE0=Get Up
TTITLE1=i n i
TTITLE2=Sweet Misery
TTITLE3=Searchin' for My Soul
TTITLE4=Even If
TTITLE5=Infinite Possibilities
TTITLE6=Shine
TTITLE7=Down
TTITLE8=Weather
TTITLE9=Make Me Whole
TTITLE10=Get Up (Thread Had Fun remix)
EXTD=
EXTT0=
EXTT1=
EXTT2=
EXTT3=
EXTT4=
EXTT5=
EXTT6=
EXTT7=
EXTT8=
EXTT9=
EXTT10=
PLAYORDER=
